<?xml version="1.0" encoding="utf-8"?>
<!-- Generator: Adobe Illustrator 16.2.1, SVG Export Plug-In . SVG Version: 6.00 Build 0)  -->
<!DOCTYPE svg PUBLIC "-//W3C//DTD SVG 1.1//EN" "http://www.w3.org/Graphics/SVG/1.1/DTD/svg11.dtd">
<svg version="1.1" id="Layer_1" xmlns="http://www.w3.org/2000/svg" xmlns:xlink="http://www.w3.org/1999/xlink" x="0px" y="0px"
	 width="1000em" height="1018.21em" viewBox="0 0 1000 1018.21" enable-background="new 0 0 1000 1018.21" xml:space="preserve">
<g>
	<g>
		<path fill-rule="evenodd" clip-rule="evenodd" d="M0,527.073c0-12.011,0-24.021,0-36.033c3.653-8.579,0.682-23.083,2.06-33.972
			c1.026-8.104,6.488-17.233,8.238-26.769c2.5-13.619,3.365-23.92,6.178-33.971c2.979-10.651,5.398-18.434,7.208-25.739
			c1.165-4.704,0.854-9.981,2.059-13.384c1.459-4.12,5.567-9.005,7.209-12.354c2.741-5.59,9.971-13.978,11.326-20.589
			c1.748-8.521-1.217-17.139,0-24.709c1.62-10.063,7.1-15.39,12.356-23.677c4.696-7.404,8.115-13.447,12.357-18.531
			c4.062-4.868,6.718-10.003,12.356-12.353c2.303-8.68,13.262-8.705,15.446-17.502c0.537-20.677,13.123-31.567,23.684-42.21
			c2.709-2.731,6.545-4.614,8.237-7.207c3.196-4.892,3.953-12.518,7.209-16.472c9.633-11.698,25.101-17.935,33.98-27.796
			c6.837-8.475,9.267-17.018,18.535-22.649c7.226-4.39,14.211-4.13,18.536-9.265c4.478-5.317,5.182-9.659,10.297-13.385
			c5.386-3.92,11.179-4.801,17.506-8.236c7.515-4.078,13.866-10.945,21.625-14.412c4.242-1.895,7.671-2.452,12.356-4.117
			c13.536-4.816,28.614-17.575,47.368-18.531c7.812-8.231,22.458-9.752,31.922-15.442c3.866-2.326,5.132-5.617,9.267-7.207
			c4.064-1.562,10.447-1.495,17.506-3.09c5.177-1.166,11.225-4.396,16.476-5.147c6.046-0.859,13.268,1.242,19.565,0
			c9.536-1.875,19.134-8.326,26.772-9.265c10.189-1.248,16.732,0.69,29.862,0c8.315-0.435,24.09-5.048,28.832-2.058
			c5.035,3.172,0.44,3.52,3.09,9.265c1.102,2.39,2.552,3.753,6.18,4.118c7.357,0.742,4.083-2.291,7.207-6.176
			c2.517-3.133,19.496-0.986,27.802-1.031c8.105-0.043,17.007-1.622,22.655-1.028c8.462,0.89,16.468,6.597,23.684,7.207
			c8.348,0.704,17.718-2.034,26.772-1.032c18.326,2.035,34.626,9.911,50.458,15.444c8.444,2.951,15.685,5.712,22.652,10.294
			c6.276,4.127,11.008,10.629,18.536,14.412c7.258,3.65,18.937,6.066,26.772,9.268c8.932,3.649,19.461,12.474,30.893,17.502
			c12.738,5.6,28.306,10.919,30.892,18.529c1.324,3.893-1.793,10.682,0,14.414c7.656,7.947,17.974,6.252,26.773,10.294
			c2.577,1.186,4.843,4.736,8.238,7.207c9.268,6.748,19.563,13.89,25.743,21.619c9.776,12.23,17.384,26.886,30.893,35.004
			c3.299,7.758,8.53,13.596,13.386,20.589c4.897,7.054,12.44,11.609,14.416,20.591c1.676,7.623-1.48,16.919,2.06,24.707
			c3.426,7.536,13.578,7.49,18.536,13.384c4.201,4.994,3.333,13.668,6.177,19.56c2.57,5.325,9.173,8.837,12.357,14.412
			c4.035,7.073,10.601,18.144,11.326,24.709c0.654,5.89-3.918,14.564-2.058,20.589c1.856,6.016,11.639,7.488,13.386,14.414
			c6.713,5.844,7.021,13.076,7.207,19.562c0.113,3.918,1.569,6.436,2.061,10.295c2.297,18.027,5.358,32.717,12.356,46.325
			c-1.645,14.372,4.148,27.775,3.089,42.21c-0.438,5.966-4.031,11.55-4.119,17.502c-0.084,5.809,2.668,11.602,3.09,17.502
			c1.646,23.008-2.997,46.718-2.06,71.034c-2.964,6.807-9.179,12.281-11.327,20.591c-3.045,11.791-0.839,24.816-2.06,37.062
			c-0.923,9.271-3.614,15.66-6.177,23.679c-2.394,7.483-4.005,15.597-6.18,19.56c-3.211,5.852-7.883,8.306-11.326,14.414
			c-1.521,2.697-1.838,5.86-5.149,8.234c0.832,15.7-4.59,24.801-10.297,36.033c-2.737,5.387-5.535,11.17-8.239,16.472
			c-5.139,10.083-12.296,24.963-18.533,31.914c-4.303,4.793-13.604,6.703-17.506,12.354c-3.43,4.967-2.565,12.061-6.18,16.472
			c-6.054,4.696-13.097,10.202-17.506,17.501c-1.963,3.252-3.656,10.421-6.177,14.415c-2.121,3.357-6.022,6.806-9.267,10.294
			c-3.115,3.346-6.13,7.539-9.27,10.295c-5.062,4.442-13.02,6.297-18.535,11.324c-4.727,4.309-6.878,11.159-11.327,15.442
			c-3.695,3.56-8.82,7.427-13.386,11.324c-4.252,3.629-8.994,8.576-13.387,11.324c-4.541,2.843-10.743,3.146-15.446,6.178
			c-3.483,2.246-5.179,6.676-8.236,9.265c-9.14,7.737-24.204,17.455-35.012,20.591c-7.073,2.052-14.773,0.562-21.626,3.088
			c-8.26,3.045-11.865,13.188-20.593,18.531c-9.681,5.924-24.036,9.271-38.102,14.412c-19.677,7.192-39.927,14.557-58.694,8.237
			c-8.515,2.191-15.373,9.491-23.684,11.324c-4.619,1.02-10.819,0.243-16.476,1.029c-15.3,2.125-32.631,4.645-46.339,2.058
			c-4.936-0.931-10.173-4.799-15.444-5.146c-6.588-0.435-13.975,1.93-20.595,2.06c-7.439,0.146-14.865,1.396-21.625,1.029
			c-5.269-0.287-10.434-2.678-15.446-3.089c-7.058-0.577-13.854,0.713-20.595,0c-12.41-1.312-26.329-5.701-38.101-10.295
			c-5.583-2.18-11.793-3.062-18.534-5.147c-5.887-1.82-11.927-6.324-17.506-7.207c-4.684-0.74-9.022,0.841-13.387,0
			c-4.808-0.925-11.076-4.604-16.476-7.205c-5.659-2.727-10.843-7.28-15.445-9.267c-2.832-1.221-6.124-0.795-9.268-2.058
			c-4.933-1.982-10.9-4.941-15.446-7.207c-2.866-1.429-4.422-3.578-7.208-5.147c-10.859-6.114-25.049-10.396-28.833-17.502
			c-2.529-4.753-0.244-9.168-1.03-12.354c-1.688-6.853-15.65-6.872-21.624-10.295c-4.181-2.396-7.277-7.669-11.328-10.295
			c-4.866-3.156-10.717-4.218-15.445-7.207c-7.126-4.503-16.326-13.334-22.654-18.531c-5.164-4.241-8.56-8.271-12.357-13.382
			c-9.861-13.279-22.84-23.503-29.862-37.063c-7.371-4.298-14.108-9.229-20.594-14.412c-0.974-6.809,3.328-8.342,2.06-15.441
			c-5.979-3.514-11.266-7.627-16.476-13.385c-5.01-5.537-11.444-9.82-15.446-15.441c-3.7-5.198-5.765-12.831-9.268-19.562
			c-3.17-6.092-8.075-11.593-11.326-17.502c-6.868-12.476-14.501-28.763-16.476-41.178c-0.809-5.089,0.086-11.249-1.03-16.475
			c-1.649-7.719-8.421-13.153-11.327-21.619c-1.27-3.699-1.822-7.641-3.09-11.324c-5.878-17.082-9.246-39.171-11.327-54.562
			c-0.026-0.193-1.965-1.665-2.06-2.06c-2.427-10.081-0.348-23.792-1.03-33.974C4.502,545.202,0.998,537.137,0,527.073z
			 M947.354,466.333c-9.464-13.85-15.95-35.022-19.565-56.622c-0.749-4.466,2.475-14.498,1.029-22.649
			c-1.317-7.429-8.241-15.052-11.326-23.677c-1.043-2.915-0.652-6.221-2.061-9.267c-1.7-3.677-5.351-7.072-7.209-10.294
			c-6.087-10.562-7.07-20.749-12.356-30.884c-4.488-8.608-8.203-18.476-13.386-27.799c-4.398-7.912-11.438-14.085-15.446-21.619
			c-2.529-4.753-3.104-10.593-6.177-14.414c-2.448-3.039-7.225-4.82-10.299-7.205c-5.714-4.432-8.961-7.52-12.356-14.412
			c-1.861-3.779-8.526-14.16-14.417-18.531c-3.935-2.922-8.669-2.838-12.356-5.149c-2.743-1.72-4.658-5.296-7.209-7.205
			c-2.98-2.231-6.955-1.972-8.236-6.177c-0.8-14.345-16.107-14.756-10.297-32.943c-7.015-6.828-19.415-0.104-24.715-2.061
			c0.426,0.157-6.587-6.107-8.237-7.207c-3.132-2.078-6.989-3.366-9.269-5.147c-4.231-3.303-6.366-7.765-11.327-10.294
			c-7.525-3.841-14.942-4.057-24.713-7.207c-5.753-9.69-21.055-9.833-32.952-13.382c-6.03-12.504-19.827-17.238-36.039-19.562
			c-2.977-6.29-6.542-11.99-11.329-16.469c-9.159,1.676-16.028,9.89-27.802,4.115c-1.849-0.906-3.382-3.893-6.178-5.147
			c-5.105-2.286-11.333-1.409-15.446-3.087c-5.718-2.333-9.948-11.48-17.506-9.268c-6.233,1.829-25.291,8.291-32.951,8.237
			c-6.366-0.044-12.938-2.918-19.565-3.088c-10.038-0.26-20.284,1.894-32.95,1.03c-4.836,18.867,5.001,27.045,10.297,40.15
			c4.208,10.412,9.852,19.054,9.268,30.884c8.038,6.659,9.022,19.553,13.386,29.855c2.051,4.842,6.95,8.378,8.238,13.383
			c0.917,3.567-0.528,7.823,0,11.326c0.42,2.775,3.362,12.522,5.149,16.47c1.521,3.364,4.68,5.97,6.178,9.267
			c3.229,7.115,4.172,15.861,7.209,23.677c2.565,6.605,7.918,11.753,7.207,20.592c6.619,7.452,12.896,15.246,13.387,28.826
			c8.964,13.881,16.324,27.456,21.625,46.325c0.812,2.891,0.912,6.146,2.06,9.267c0.93,2.53,3.558,4.904,4.117,7.207
			c1.156,4.732,1.783,7.806,4.12,13.383c0.983,2.347,1.017,5.928,2.06,8.236c2.217,4.908,6.42,8.279,8.237,13.385
			c2.806,7.876,2.974,16.607,6.179,24.706c2.891,7.306,8.749,14.182,11.326,21.619c2.549,7.35,1.699,15.272,4.12,22.649
			c1.445,4.409,4.203,9.015,6.179,13.384c5.431,12.019,14.408,24.243,19.563,37.062c1.829,4.547,2.226,9.686,4.12,14.414
			c1.714,4.276,4.897,8.211,6.179,12.354c1.35,4.359,0.816,8.699,2.058,12.353c4.327,12.73,14.887,20.247,20.596,32.943
			c4.663,10.37,6.903,21.265,11.327,31.916c9.017,5.25,18.468-1.382,22.655-7.207c2.645-2.502,2.725-7.569,3.087-12.354
			c3.382-2.454,8.512-3.158,10.299-7.205c0.76-7.205-2.175-10.999-2.06-17.501c0.161-9.146,6.087-16.946,7.207-25.739
			c0.415-3.244-1.257-6.867-1.03-10.294c1.123-16.923,15.128-28.08,15.446-40.15c0.071-2.642-2.405-6.472-3.087-11.325
			c-1.5-10.651,1.558-19.018-2.061-24.708c-3.401-5.347-12.264-5.076-19.565-9.265c-4.726-2.713-9.351-9.729-14.416-11.325
			c-9.429-2.97-23.006,3.331-29.862-6.175c3.675-7.198,12.965-17.59,25.743-16.474c4.216,0.369,8.813,5.219,13.386,6.177
			c6.788,1.425,16.325-0.495,23.686-1.029c18.513-1.343,40.016,0.788,60.754-1.028c20.197-1.772,38.926-5.898,62.812-3.09
			c5.959,0.701,14.748-0.415,15.446,8.237c-4.477,9.561-14.087,6.184-21.624,10.295c-7.605,4.146-10.992,12.943-17.505,17.501
			c-9.231,6.461-21.762,8.797-33.982,3.088c-11.889,25.174-25.862,48.268-31.92,79.271c-2.735,3.754-7.014,6.732-9.269,11.324
			c-0.766,1.559-0.086,4.411-1.03,7.207c-1.239,3.673-4.566,10.133-6.177,16.472c-0.95,3.731-0.835,7.807-2.06,11.324
			c-1.396,4-4.315,6.761-5.149,10.295c-1.33,5.628-0.139,11.094-2.061,16.472c-2.99,8.38-10.286,11.998-7.207,23.679
			c-3.557,5.458-8.467,7.627-12.356,14.412c-2.429,4.237-8.826,9.577-9.269,15.444c-0.304,4.035,1.181,7.417,1.03,11.324
			c-0.487,12.684-6.516,23.198-10.297,36.031c-2.15,7.293-1.89,15.368-4.12,22.648c-2.796,9.135-10.833,16.839-16.476,26.767
			c-3.417,6.016-4.13,14.03-7.207,18.531c-3.371,4.93-10.072,6.819-13.387,12.354c-0.605,17.018-4.646,30.416-8.238,44.269
			c-1.546,5.963-2.081,13.305-4.118,17.501c-5.554,11.432-18.917,12.391-21.625,24.709c-1.938,8.818,2.016,15.434,0,24.707
			c-1.657,7.62-12.963,15.635-8.237,26.766c13.396,13.401,20.449,1.924,31.92-7.204c4.716-3.753,12.636-9.18,18.536-11.325
			c5.911-2.149,15.27-1.974,20.596-4.119c8.176-3.291,17.115-14.525,24.713-18.529c10.105-5.328,21.974-9.811,32.952-11.325
			c5.325-0.735,11.222,1.275,16.476-2.06c5.512-6.666-0.883-14.332,2.06-20.589c1.886-4.015,8.757-4.841,12.356-7.207
			c8.782-5.774,18.819-20.088,27.803-19.56c5.919,11.28-10.951,15.174-10.299,27.797c18.567,10.363,21.824-18.649,20.596-38.094
			c12.728-32.916,40.781-50.51,63.844-73.094c-0.146-15.587,11.729-26.603,14.416-40.15c0.923-4.652-0.896-9.555,0-13.382
			c0.519-2.218,3.101-5.816,4.12-8.237c1.336-3.18,2.898-5.854,4.117-8.235c3.853-7.523,9.822-13.237,11.326-24.708
			c8.204-5.663,10.739-19.598,5.149-28.826c4.506-8.762,2.792-22.186,9.268-30.884c0.688,5.407,8.589,8.216,14.418,5.147
			c3.293-4.852-1.683-8.919-3.09-12.354c-6.206-2.048-9.063,4.612-11.328,3.087c-0.764-18.652,4.318-36.777,5.148-55.592
			c0.265-5.974-2.473-14.304-1.029-20.59c1.221-5.316,8.889-8.455,10.299-15.443c1.814-9.016-3.474-13.299-1.03-21.617l1.888,0.514
			l1.2-1.546c1.848-0.13,2.173,1.263,4.119,1.032c4.084-3.314,8.099-11.551,5.149-18.531c-9.229-0.992-10.129,6.345-10.299,14.412
			l-1.888-0.515L947.354,466.333z M651.821,68.949c4.337,5.806,24.205,10.225,26.772,0
			C673.863,64.721,653.482,57.639,651.821,68.949z M310.979,80.271c4.028,3.578,17.707,2.966,20.595-1.027
			c-0.505-3.252,1.854-3.638,1.029-7.207C327.262,65.17,309.326,68.074,310.979,80.271z M400.566,81.303
			c-11.373,3.201-18.336,10.813-29.862,12.354c-4.212,0.563-8.648-0.959-13.388,0c-8.309,1.684-14.007,9.451-21.624,13.383
			c-5.895,3.044-15.495,6.297-23.684,9.266c-8.924,3.234-17.964,8.154-24.713,8.236c-4.972,0.059-8.554-3.332-13.386-3.09
			c-5.324,0.27-7.572,3.921-13.387,5.15c-5.456,9.564-6.292,20.421-13.387,27.796c-3.332,3.463-8.85,4.694-13.386,8.234
			c-4.65,3.631-8.276,8.986-13.386,12.354c-8.916,5.878-16.533,10.209-25.743,13.383c-8.872,11.034-16.276,23.533-29.862,29.855
			c-3.191,8.378-10.098,14.105-14.416,21.619c-1.79,3.115-2.095,7.209-4.12,10.297c-2.958,4.51-8.367,7.56-11.327,12.353
			c-2.628,4.256-3.141,10.116-6.179,14.411c-7.93,0.961-13.105,8.111-20.594,6.18c-7.211-1.862-3.248-9.468-11.327-11.326
			c-4.268,5.23,0.466,10.281,1.03,16.474c-4.756,9.493-17.928,15.555-21.624,27.796c-0.953,3.15-2.728,17.097,5.148,17.502
			c6.97,0.356,5.706-7.841,8.238-13.385c1.377-3.014,4.981-7.733,7.208-10.294c2.893-3.329,5.385-7.908,11.327-6.178
			c2.549,9.569-4.935,18.607-8.238,24.709c-1.297,2.396-1.732,4.904-3.089,7.207c-2.405,4.073-7.362,6.62-9.268,11.322
			c-1.441,3.558-0.639,9.242-2.06,14.414c-2.036,7.411-4.22,12.925-6.178,21.619c-1.784,7.923-3.752,15.679-6.178,22.649
			c-3.121,8.967-3.085,13.938-4.119,23.679c-0.959,9.04-3.689,16.799-7.208,24.708c-1.876,2.24-8.421-0.185-10.297,2.059
			c-3.393,9.356,0.292,14.758,2.06,20.589c0.852,2.812,0.221,7.276,1.03,9.265c1.724,4.247,6.107,6.374,7.208,11.326
			c1.637,7.364-1.594,20.435-2.06,24.707c-0.314,2.886,1.321,5.751,1.03,7.207c-0.989,4.936-4.733,7.52-4.12,12.354
			c0.509,4.002,5.971,8.726,7.208,12.354c2.218,6.498,0.649,13.203,3.089,18.529c2.049,4.474,7.266,7.167,9.268,12.354
			c4.626,11.987-0.502,24.715,0,35.003c0.313,6.445,3.782,15.144,6.178,22.648c2.427,7.6,4.625,15.797,7.208,22.649
			c8.408,22.303,21.496,39.083,22.654,65.887c7.413,5.972,19.492,7.278,16.475,23.679c3.512,3.139,3.355,6.494,7.209,9.266
			c3.375,2.429,8.236,1.93,11.326,4.119c2.035,1.441,3.819,5.235,6.178,8.234c10.126,12.877,20.255,25.147,33.982,32.944
			c4.751,2.699,10.467,4.022,13.386,7.207c3.969,4.329,4.069,11.28,6.178,16.472c9.069,8.476,19.61,15.068,29.862,22.648
			c13.87,10.255,30.05,21.688,37.071,37.063c8.751,1.61,11.563,8.881,20.594,11.322c4.945,1.338,11-0.55,17.505,1.029
			c7.043,1.712,13.928,10.642,24.713,13.385c2.661,0.678,5.712-0.417,8.238,0c4.25,0.7,10.011,2.907,14.416,4.117
			c6.536,1.796,9.303,7.644,14.417,10.295c3.398,1.764,9.907,1.771,14.416,4.119c7.701,4.011,12.133,12.757,21.624,11.324
			c5.585-0.843,8.966-8.6,13.387-9.267c6.659,0.405,10.628,7.916,18.535,10.295c18.723,5.632,70.292-0.528,98.854,0
			c13.575,0.252,27.598-2.98,29.862-12.353c-3.098-6.533-8.52-12.832-12.356-21.621c-3.52-8.062-5.621-18.032-9.267-25.736
			c-2.381-5.027-6.889-8.346-8.239-13.384c-2.2-8.208,0.942-13.949-3.089-19.56c-2.729-3.801-10.205-4.48-13.387-8.237
			c-6.234-7.357-3.192-22.06-6.178-32.943c-1.771-6.456-8.243-16.411-13.386-24.707c-5.06-8.159-10.233-16.476-14.417-24.708
			c-8.503-16.732-19.241-33.915-26.773-51.476c-3.311-7.717-4.561-15.368-8.237-21.619c-3.605-6.129-9.646-10.202-13.387-16.472
			c-8.354-14.001-8.418-32.085-14.416-45.298c-2.479-5.462-7.748-9.946-10.298-15.441c-1.688-3.642-2.371-7.311-4.118-11.325
			c-4.442-10.206-12.074-24.7-14.416-35.003c-0.695-3.061,0.415-6.058,0-9.267c-1.754-13.531-6.25-26.45-10.298-37.062
			c-2.221-5.82-4.355-11.93-7.208-17.501c-2.62-5.118-7.094-9.829-9.269-15.442c-3-7.748-2.408-16.408-7.208-22.648
			c-8.043-10.461-24.044-12.451-39.129-16.472c-9.948-2.653-19.024-6.202-25.744-5.147c-3.753,0.587-8.27,5.325-12.356,6.177
			c-3.553-1.254-5.443-4.167-8.238-6.177c-4.237-1.055-8.76,3.511-10.297-1.03c-4.385-11.725,7.357-15.882,4.119-29.855
			c8.472-7.923,8.081-20.183,12.356-29.856c1.916-4.333,6.325-6.827,8.238-10.294c2.459-4.456,3.579-11.004,5.148-16.473
			c1.554-5.413,4.38-11.332,5.149-16.472c0.555-3.708-1.017-7.448,0-11.324c1.103-4.199,5.066-7.355,6.178-11.324
			c0.805-2.869-0.475-6.498,0-9.265c0.812-4.724,4.289-9.46,6.179-14.412c6.098-15.985,14.245-29.692,16.476-45.298
			c7.978-13.244,18.056-24.619,22.654-40.15c1.123-3.797,0.684-8.455,2.059-12.354c1.8-5.102,7.216-9.175,10.298-14.414
			c6.343-10.781,11.053-21.63,12.356-35.004c5.534-10.938,13.263-19.683,17.506-31.913c14.479-7.705,38.974-14.471,30.893-38.091
			c-7.211-0.688-9.78,3.264-17.506,2.058c-2.593-3.24,1.367-13.034-5.148-12.353C398.271,68.2,399.591,74.768,400.566,81.303z
			 M695.069,75.124c3.18,1.46,8.078,1.246,8.237-3.087c-0.877-2.897-2.926-4.625-7.207-4.118
			C694.68,69.246,695.08,72.389,695.069,75.124z M247.135,94.686c-5.52,7.521-17.654,8.432-27.803,11.324
			c-2.875,12.742,4.986,22.966,13.387,27.797c6.713-3.298,1.535-11.346,3.089-16.473c6.608-6.091,15.941-9.457,16.476-21.619
			C251.089,94.852,249.523,94.358,247.135,94.686z M457.201,97.773c-4.786,4.781,0.317,12.891,6.178,13.384
			C468.157,106.385,463.95,97.379,457.201,97.773z M198.738,154.397c10.81-1.204,7.667-16.356,11.327-24.709
			C201.079,124.89,196.089,144.312,198.738,154.397z M412.923,134.836c-0.247,1.469-1.696,1.736-2.06,3.088
			c0.852,2.911-1.452,2.668-1.03,5.146c-5.707,3.78-6.954,10.967-11.326,17.502c-3.984,5.957-10.873,9.831-14.417,15.442
			c-4.401,6.972-3.895,15.278-7.208,23.681c-0.995,2.521-3.011,5.042-4.119,7.205c-1.641,3.203-1.732,5.82-3.089,9.265
			c-2.188,5.559-6.335,10.777-7.208,16.474c-0.857,5.599,1.167,11.849,0,17.502c-1.237,5.984-5.95,10.592-8.238,16.47
			c-2.161,5.554-2.661,12.377-5.147,18.531c-2.144,5.303-6.771,10.297-8.238,15.444c-1.182,4.141-0.092,8.276-1.03,12.354
			c-1.132,4.91-5.351,9.4-7.208,14.411c-1.463,3.946-1.522,9.235-3.09,13.385c-2.894,7.662-8.327,11.733-6.178,22.648
			c-2.76,4.447-11.31,3.104-12.356,9.263c-1.422,3.241-1.787,19.291,0,25.739c5.225,4.453,14.294,12.784,23.683,11.324
			c5.379-0.835,6.195-5.21,11.328-7.207c7.04,2.341,13.025-4.212,20.594-5.147c9.716-1.2,20.233,3.41,30.893,3.09
			c4.1-0.124,7.961-1.701,12.356-2.06c33.26-2.717,70.886,2.038,105.033,0c3.801-3.406,9.596-4.818,10.296-11.325
			c-2.246-3.773-8.518-5.612-11.326-9.265c-1.141-1.484-2.224-5.791-4.119-9.265c-1.688-3.1-4.271-5.487-5.147-8.236
			c-0.925-2.899,0.101-6.173-1.03-9.265c-2.963-8.109-11.282-15.017-13.387-21.621c-1.269-3.979-0.014-8.979-1.029-13.383
			c-3.092-13.405-14.482-22.213-19.565-35.003c-1.299-3.266-0.759-6.708-2.06-10.295c-1.44-3.973-4.283-6.465-5.148-10.294
			c-2.007-8.89,1.578-19.872-1.03-28.826c-3.294-11.314-17.543-18.538-20.594-28.826c-1.177-3.969,0.379-8.598-1.03-12.354
			c-2.851-7.598-14.02-10.765-17.505-18.529c-4.389-9.783-0.302-18.324-8.238-25.739c-0.288-3.498,7.924-7.907,2.061-10.297
			C415.838,134.666,414.384,134.748,412.923,134.836z M216.244,136.896c-2.29,5.882,0.324,13.483,6.178,14.412
			C228.812,147.488,224.721,132.111,216.244,136.896z M447.934,174.986c5.621,8.68,2.585,20.648,11.327,21.619
			c5.533,0.615,12.639-6.047,9.267-15.443c-5.783-4.401-12.27-6.253-16.475-12.353c-2.217-3.216-0.784-9.164-6.18-10.297
			c-3.297-1.882-10.194,1.445-9.267,7.207C438.995,170.268,443.958,168.85,447.934,174.986z M482.944,198.663
			c1.947,0.231,2.272-1.157,4.119-1.027c0.478-3.224-0.896-4.596-4.119-4.12C481.622,194.871,481.622,197.312,482.944,198.663z
			 M472.647,221.312c9.212,1.393,12.547-9.611,8.237-15.442C470.097,203.295,469.876,216.399,472.647,221.312z M511.776,251.168
			c1.917-2.473,3.883-8.461,3.09-12.354c-1.028-5.053-16.515-17.402-23.685-13.382c-9.297,5.215,7.127,15.287,6.179,21.619
			c-1.261,8.43-22.052,9.407-12.356,24.707C496.527,269.679,506.406,258.103,511.776,251.168z M505.6,309.851
			c1.715,0,3.431,0,5.146,0c-0.022-2.427,1.774-3.031,1.03-6.178C507.487,300.312,502.377,305.418,505.6,309.851z M920.579,325.292
			c1.968-7.775-3.52-14.299-5.147-21.619C896.762,299.13,905.857,331.591,920.579,325.292z M533.401,331.47
			c-5.201,8.62-14.884,3.49-25.744,6.177c-0.626,6.116,3.362,7.62,6.179,10.295c8.311-5.104,14.979,5.577,22.655,6.177
			c4.78,0.374,6.937-2.122,11.327-4.117c3.604-1.641,12.145-2.105,10.296-9.265c-1.216-0.499-2.334-1.1-3.089-2.06
			c-7.983-1.12-6.484,7.244-13.387,7.207c-2.198-4.321-2.469-10.574-5.147-14.414C535.461,331.47,534.432,331.47,533.401,331.47z
			 M959.711,360.296c-2.476,5.59,2.347,12.731,9.267,12.352C971.264,367.1,965.449,357.701,959.711,360.296z M536.491,368.532
			c0.199,13.25,18.708,13.462,30.89,11.322c0.778-6.267-2.257-8.721-2.058-14.412C554.867,368.507,543.996,364.845,536.491,368.532z
			 M551.936,397.356c-3.724-5.102-9.787,0.963-6.178,6.177C550.444,404.1,551.375,400.914,551.936,397.356z M406.744,413.83
			c-1.433,12.181,16.081,10.637,18.535,3.088C421.643,413.256,412.255,409.409,406.744,413.83z M514.866,415.888
			c0.948,9.299,5.229,19.761,15.446,16.472C533.396,422.766,523.925,410.265,514.866,415.888z M457.201,415.888
			c0,1.03,0,2.058,0,3.09c3.637-0.482,9.921,1.683,9.268-3.09C464.8,414.342,458.871,414.342,457.201,415.888z M550.907,430.3
			c-5.722-0.57-7.226,3.075-7.209,8.237c2.429,0.316,1.915,3.576,5.149,3.09C553.093,440.259,554.081,433.554,550.907,430.3z
			 M578.71,455.009c3.012-7.461-5.604-10.385-5.149-18.529c-1.317-0.059-1.426-1.321-3.09-1.032
			C568.833,442.747,569.517,455.248,578.71,455.009z M516.926,437.507c-11.024,3.411-24.056,2.366-37.07,5.147
			c-4.83,1.032-15.978,6.758-17.506,9.267c-6.318,10.362-2.887,29.699,2.06,40.15c2.465,5.206,8.003,8.564,9.268,14.412
			c2.279,10.538-1.68,18.534,0,29.856c3.731,7.729,13.53,10.083,18.535,16.472c5.274,6.733,7.112,15.481,8.238,26.767
			c2.858,5.329,6.646,11.001,10.296,17.501c3.346,5.955,5.477,16.032,11.329,17.502c10.977,2.756,21.812-14.762,39.129-8.237
			c3.218-8.106,7.878-14.772,19.565-14.411c0.225-5.213-2.519-9.076-3.09-13.385c-0.836-6.315,0.772-13.191-1.029-19.56
			c-2.563-9.053-10.626-14.632-11.327-21.619c-1.258-12.534,9.831-17.983,7.208-31.915c-8.256-1.473-9.471,7.527-16.477,4.119
			c-5.711-3.337-2.45-9.963-4.119-15.443c-2.312-7.598-9.63-14.006-6.178-26.767C533.739,459.818,529.297,444.699,516.926,437.507z
			 M420.131,495.159c3.99-4.245,10.384-6.091,9.268-15.441C414.422,466.331,403.289,490.381,420.131,495.159z M594.156,490.012
			c-2.521-8.327-14.264-16.402-19.565-7.207c1.338,6.228,7.366,5.131,9.267,11.325c0.579,1.885-1.281,6.286-1.03,9.265
			c0.418,4.905,3.82,7.861,3.09,12.354c-2.322,7.287-7.962,11.258-9.267,19.562c8.535,4.776,15.222-1.088,21.623-4.117
			c22.697,7.979,32.66-24.879,13.387-26.767c-5.955-0.585-6.572,3.78-13.387,4.115C591.704,505.888,596.141,496.568,594.156,490.012
			z M615.779,493.1c-0.19-1.522-2.487-0.944-4.119-1.028C609.462,495.857,616.903,496.716,615.779,493.1z M23.684,496.189
			c1.033-0.005,1.225,0.832,2.059,1.029c-0.098-1.619,0.139-3.569-2.059-3.089C23.684,494.815,23.684,495.503,23.684,496.189z
			 M446.903,508.541c3.966,0.814,3.966-4.929,0-4.115C446.903,505.798,446.903,507.17,446.903,508.541z M427.339,522.955
			c-5.535,8.195-23.251,25.299-8.238,35.004c6.917-8.528,12.694-18.194,15.446-30.886
			C432.517,525.328,432.186,521.886,427.339,522.955z M976.187,546.635c-9.67,5.258-6.292,22.636,9.267,19.559
			c9.389-8.497,0.868-24.24-4.119-30.884C972.064,533.615,974.028,541.942,976.187,546.635z M470.588,576.49
			c-7.686,0.411-7.797,8.099-14.417,10.295c-5.597-0.925-7.167-5.875-12.356-7.207c-6.103,3.096-13.23,6.601-13.386,13.384
			c-0.219,9.479,16.913,20.778,23.683,22.649c5.369,1.482,10.664-0.944,15.446,2.058c10.951,6.875,3.503,24.194,18.536,20.591
			c-0.66-6.548-4.151-10.263-5.149-16.472c1.198-3.951,3.646-6.651,5.149-10.297c-6.404-7.131-3.259-16.843-3.09-25.736
			C480.75,580.973,476.849,576.154,470.588,576.49z M31.922,623.846c-4.909,5.904-0.34,16.846,2.059,22.649
			C48.442,646.32,44.093,623.105,31.922,623.846z M595.186,637.23c-4.066-0.12-8.49,0.356-12.358,0
			c-10.674-0.984-19.792-7.325-28.832-8.237c-12.51-1.263-21.057,3.947-26.772,9.267c-0.229,5.718,3.15,7.83,4.119,12.353
			c-2.301,7.308-9.522,8.652-9.267,15.444c0.249,6.692,11.271,12.145,16.474,18.529c8.344,10.242,8.73,19.169,12.358,29.855
			c3.097,3.868,8.654,6.249,12.356,12.354c7.015,11.574,9.312,32.572,2.06,41.181c-3.935,4.667-10.197,2.986-13.388,9.265
			c0.43,10.844,7.547,26.471-3.088,27.796c-6.838,0.852-4.868-7.727-12.356-8.236c-7.567,12.633,7.35,18.979,12.356,25.738
			c7.532,1.353,9.498-2.859,16.476-2.06c4.898,2.31,3.983,10.429,10.297,11.324c8.535-1.84,5.118-11.895,13.387-12.354
			c8.753-0.484,10.611,16.195,16.476,20.592c7.101,5.321,21.93,5.221,26.772-2.061c4.133-6.21,1.016-19.915,4.12-28.825
			c3.119-8.952,10.858-9.758,11.326-18.53c0.407-7.655-7.695-13.848-8.236-21.621c-0.812-11.626,8.775-15.997,12.356-23.677
			c2.409-5.174,2.177-11.441,4.117-17.501c2.646-8.256,11.425-10.529,15.446-17.502c2.756-4.776,3.719-10.414,5.149-15.441
			c1.082-3.81,2.056-7.562,3.089-11.325c2.428-8.837,3.852-18.643,6.178-26.769c1.86-6.493,7.427-11.138,5.149-18.529
			C659.564,635.732,625.235,638.106,595.186,637.23z M483.974,681.498c-3.1,3.66-6.476,6.158-7.208,9.265
			c-1.342,5.69,1.334,14.805,4.119,19.562c4.228,7.22,13.052,9.522,14.417,17.502c1.205,7.05-6.166,19.811,6.178,18.529
			c8.694-6.582-1.5-15.452-2.06-23.677c-0.734-10.783,9.135-25.44,19.565-25.738c-4-9.735-5.537-17.259-8.239-26.767
			C495.138,665.884,489.972,674.417,483.974,681.498z M537.52,741.208c0.031-5.328,1.9-9.453-3.088-11.324
			C531.729,732.698,530.881,742.068,537.52,741.208z M655.938,781.358c1.219,1.186,3.642,1.166,6.179,1.03
			c0.411-3.843-0.822-6.041-4.119-6.178C657.56,778.175,655.058,778.074,655.938,781.358z M159.608,821.509
			c2.823,4.292,1.798,9.854,7.208,10.295c9.136-3.112,5.421-16.941,1.03-22.648c-7.5-0.395-9.189-6.597-17.505-6.178
			C149.041,814.159,155.516,815.288,159.608,821.509z M849.528,847.248c-0.749-2.339,1.856-8.034-2.06-7.207
			C845.96,841.673,845.344,848.215,849.528,847.248z M568.411,862.689c7.304-2.065,6.666-13.013,3.09-18.531
			C560.191,843.095,560.42,860.151,568.411,862.689z M581.798,885.339c-2.14,5.707-3.514,12.358,1.029,16.472
			c14.079,0.166,19.539-3.607,29.862-8.237c0.044-3.388,1.739-5.124,1.03-9.265C606.058,880.529,590.054,883.174,581.798,885.339z
			 M740.378,928.577c10.253,5.81,23.364-1.553,23.683-12.354C755.786,909.491,742.035,918.96,740.378,928.577z M684.771,939.901
			c8.938-2.074,18.11-0.358,22.655-8.235C703.071,917.345,679.645,925.338,684.771,939.901z M416.013,959.463
			c0.798,7.779,4.978,12.18,14.416,11.324c1.778-2.339,2.484-5.754,2.059-10.297C429.271,956.872,420.272,956.434,416.013,959.463z
			 M494.271,982.111c3.621,4.495,13.671,1.139,16.475-3.09C508.869,976.236,496.149,978.263,494.271,982.111z"/>
		<path fill-rule="evenodd" clip-rule="evenodd" d="M281.117,470.45c-0.894,6.658-6.225,8.877-8.238,14.414
			c3.158,14.763-5.522,23.989-12.356,31.914c0.388,7.088-5.204,15.771-8.238,26.767c-1.903,6.896-0.9,14.944-3.09,20.591
			c-2.328,6.003-11.96,10.733-11.326,16.472c0.566,5.142,6.529,6.805,10.296,7.207c7.055,12.164,16.617,21.82,23.684,33.974
			c13.815,4.753,23.361-6.695,32.952-12.354c7.353,4.586,28.131,11.398,28.833,22.649c0.474,7.618-5.818,11.39-14.417,12.353
			c-6.242,0.7-17.566,0.45-24.713-1.028c-6.122-1.267-10.213-5.418-14.417-6.177c-8.092-1.462-20.732,1.241-28.832,1.029
			c-6.348-0.168-12.711-2.942-19.566-3.09c-10.054-0.214-21.483,1.489-31.921,1.03c-12.197-0.537-23.812-2.509-30.892-1.03
			c-6.906,1.443-10.006,7.793-16.476,8.237c-5.82,0.398-22.544-7.651-24.713-13.384c-3.015-7.969,2.366-15.249,5.148-21.619
			c7.708-4.416,15.342-0.342,23.684-2.061c7.363-1.516,12.793-10.223,20.594-12.354c5.983-1.635,13.094,0.143,18.535-1.028
			c5.738-1.235,8.711-4.059,14.417-6.177c1.85-5.246,2.203-10.01,4.12-15.444c1.699-4.815,5.338-9.105,6.178-14.412
			c0.844-5.336-1.825-11.175-1.03-17.501c0.843-6.708,8.554-12.979,13.387-22.649c1.502-3.006,2.287-7.616,4.119-11.324
			c2.163-4.38,6.559-8.103,8.238-12.354c1.514-3.834,1.897-9.808,3.088-14.412c2.291-8.85,4.186-25.738,15.446-25.738
			C274.082,452.949,275.107,465.555,281.117,470.45z M162.698,624.876c3.1,6.59,22.396,5.491,25.743,0
			c0.869-7.046-1.402-10.951-4.118-14.412C173.493,611.646,167.582,617.748,162.698,624.876z"/>
		<path fill-rule="evenodd" clip-rule="evenodd" d="M580.77,790.625c6.812-1.353,8.642,6.715,6.178,11.325
			c-1.198-0.168-1.831,0.227-2.061,1.027C579.849,802.866,578.15,795.091,580.77,790.625z"/>
		<g>
			<path fill-rule="evenodd" clip-rule="evenodd" d="M950.271,469.937c-0.488-1.716-1.269-3.432-1.718-5.147"/>
		</g>
	</g>
</g>
</svg>
